# xmcd CD database file
#
# Track frame offsets:
#	150
#	16557
#	36087
#	60924
#	77221
#	97278
#	116224
#	131328
#	151898
#	170121
#
# Disc length: 2539 seconds
#
# Revision: 0
# Processed by: cddbd v1.4PL0 Copyright (c) Steve Scherf et al.
# Submitted via: CDex 1.51
#
DISCID=7909e90a
DTITLE=Kottonmouth Kings - Hidden Stash 
DYEAR=1900
DGENRE=New Age
TTITLE0=Kottonmouth Kings - Everyday
TTITLE1=Kottonmouth Kings - Freaks Of The Industry
TTITLE2=Kottonmouth Kings - Frontline
TTITLE3=Kottonmouth Kings - 1605 Life
TTITLE4=Kotton Mouth Kings - 3 Horny Devils
TTITLE5=Kottonmouth Kings - Love Songs
TTITLE6=Kottonmouth Kings - Nightlife
TTITLE7=Kottonmouth Kings - Pimp Twist
TTITLE8=Kottonmouth Kings - Roll It Up
TTITLE9=Kottonmouth Kings - Shouts Going Out
EXTD=YEAR: 1900
EXTT0=
EXTT1=
EXTT2=
EXTT3=
EXTT4=
EXTT5=
EXTT6=
EXTT7=
EXTT8=
EXTT9=
PLAYORDER=
